<svg xmlns="http://www.w3.org/2000/svg"  viewBox="0 0 48 48" width="144px" height="144px"><path fill="#90a4ae" d="M11 21c-.288 0-.575.151-.725.449L0 42h22L11.725 21.449C11.575 21.151 11.288 21 11 21zM40.206 30.475L34 42h14l-6.206-11.525C41.624 30.159 41.312 30 41 30 40.688 30 40.376 30.159 40.206 30.475z"/><path fill="#546e7a" d="M43 42L7 42 16.732 22 21 16 29 16 33.68 22.85z"/><path fill="#81d4fa" d="M33.746,23L31,21l1,7l-6-11l-3,7l-2-6l-4.268,4L21,13.23l3.24-6.78c0.04-0.08,0.1-0.15,0.16-0.21 C24.57,6.08,24.78,6,24.99,6c0.27,0,0.53,0.13,0.68,0.37c0.03,0.03,0.04,0.06,0.06,0.09L33.746,23z"/></svg>