<?xml version="1.0"?><svg xmlns="http://www.w3.org/2000/svg"  viewBox="0 0 24 24" width="24px" height="24px">    <path d="M 9 1 C 8.448 1 8 1.448 8 2 L 8 3 C 8 3.552 8.448 4 9 4 C 9.552 4 10 3.552 10 3 L 10 2 C 10 1.448 9.552 1 9 1 z M 13 2 C 12.448 2 12 2.448 12 3 C 12 3.552 12.448 4 13 4 C 13.552 4 14 3.552 14 3 C 14 2.448 13.552 2 13 2 z M 5 6 C 4.369 6 3.8965312 6.5763125 4.0195312 7.1953125 L 5.8574219 16.392578 C 6.0444219 17.327578 6.8653594 18 7.8183594 18 L 14.181641 18 C 15.134641 18 15.955578 17.327578 16.142578 16.392578 L 16.621094 14 L 18.5 14 C 19.412148 14 20.216908 13.370549 20.439453 12.486328 L 20.939453 10.486328 C 21.249091 9.2477785 20.276704 8 19 8 L 17.820312 8 L 17.980469 7.1953125 C 18.103469 6.5763125 17.631 6 17 6 L 5 6 z M 17.419922 10 L 19 10 L 18.5 11.998047 L 18.5 12 L 17.019531 12 L 17.419922 10 z M 4 20 C 3.448 20 3 20.448 3 21 C 3 21.552 3.448 22 4 22 L 18 22 C 18.552 22 19 21.552 19 21 C 19 20.448 18.552 20 18 20 L 4 20 z"/></svg>