<?xml version="1.0" encoding="UTF-8"?><svg id="Layer_1" xmlns="http://www.w3.org/2000/svg" viewBox="0 0 100 100"><defs><style>.cls-1{fill:#e6e6e6;}.cls-1,.cls-2{stroke-width:0px;}.cls-2{fill:#8c6239;}</style></defs><circle class="cls-2" cx="49.68" cy="49.67" r="43.75"/><path class="cls-1" d="M76.72,46.38s0-.01,0-.02H21.85c0,.11,0,.21,0,.32,0,16.95,12.29,30.7,27.44,30.7,8.56,0,16.21-4.39,21.24-11.26,1.68,1.08,3.67,1.71,5.81,1.71,5.93,0,10.74-4.81,10.74-10.74s-4.6-10.51-10.35-10.72Z"/><path class="cls-1" d="M35.35,22.6c2.29.22,4.48,1.03,6.38,2.31.47.32.93.67,1.35,1.05.3.27.98.72,1.07,1.14.17.78-1.6,1.71-2.12,2.06-1.78,1.19-4.13,2.6-4.56,4.89s1.5,4.6,2.91,6.06c1.07,1.11,2.75-.58,1.69-1.69-.85-.88-1.62-1.92-2.08-3.07s.45-2.05,1.31-2.77c1.66-1.39,4.64-2.45,5.18-4.78s-2.34-4.22-4.03-5.26c-2.16-1.33-4.59-2.08-7.1-2.32-1.53-.15-1.52,2.24,0,2.39h0Z"/><path class="cls-1" d="M51.83,24.49l3.05,1.73c.74.42,1.67.82,2.19,1.52,1.16,1.55-1.26,3.49-2.1,4.55-1.24,1.56-1.72,3.47-.47,5.18,1.15,1.56,3.06,2.54,4.87,3.1,1.47.46,2.1-1.85.63-2.3-.95-.29-1.84-.72-2.64-1.31-.53-.39-1.22-.96-1.25-1.67-.03-.81.72-1.55,1.22-2.1.65-.73,1.35-1.47,1.8-2.34.89-1.72.78-3.76-.69-5.12-.7-.64-1.54-1.1-2.35-1.56l-3.05-1.73c-1.34-.76-2.54,1.3-1.2,2.06h0Z"/></svg>